<svg width="25" height="24" viewBox="0 0 25 24" fill="none" xmlns="http://www.w3.org/2000/svg">
<circle cx="12.875" cy="12" r="10" stroke="#6C6C6D" stroke-width="1.5"/>
<path d="M11.4516 8.20419C12.0849 7.06806 12.4016 6.5 12.875 6.5C13.3484 6.5 13.6651 7.06806 14.2984 8.20419L14.4623 8.49812C14.6422 8.82097 14.7322 8.98239 14.8725 9.0889C15.0128 9.19541 15.1876 9.23495 15.5371 9.31402L15.8552 9.38601C17.0851 9.66428 17.7 9.80341 17.8463 10.2739C17.9926 10.7443 17.5734 11.2345 16.735 12.215L16.518 12.4686C16.2798 12.7472 16.1607 12.8865 16.1071 13.0589C16.0535 13.2312 16.0715 13.4171 16.1075 13.7888L16.1403 14.1272C16.2671 15.4353 16.3304 16.0894 15.9474 16.3801C15.5644 16.6709 14.9887 16.4058 13.8372 15.8756L13.5393 15.7384C13.212 15.5878 13.0484 15.5124 12.875 15.5124C12.7016 15.5124 12.538 15.5878 12.2107 15.7384L11.9128 15.8756C10.7613 16.4058 10.1856 16.6709 9.80257 16.3801C9.41956 16.0894 9.48294 15.4353 9.6097 14.1272L9.64249 13.7888C9.67851 13.4171 9.69652 13.2312 9.64293 13.0589C9.58934 12.8865 9.47021 12.7472 9.23196 12.4686L9.01505 12.215C8.17662 11.2345 7.75741 10.7443 7.90371 10.2739C8.05001 9.80341 8.66493 9.66428 9.89477 9.38601L10.2129 9.31402C10.5624 9.23495 10.7372 9.19541 10.8775 9.0889C11.0178 8.98239 11.1078 8.82097 11.2877 8.49812L11.4516 8.20419Z" stroke="#6C6C6D" stroke-width="1.5"/>
</svg>
