<svg width="25" height="24" viewBox="0 0 25 24" fill="none" xmlns="http://www.w3.org/2000/svg">
<path fill-rule="evenodd" clip-rule="evenodd" d="M12.875 22C18.3978 22 22.875 17.5228 22.875 12C22.875 6.47715 18.3978 2 12.875 2C7.35215 2 2.875 6.47715 2.875 12C2.875 17.5228 7.35215 22 12.875 22ZM11.7363 9.36335L11.6052 9.59849C11.4612 9.85677 11.3892 9.98591 11.277 10.0711C11.1647 10.1563 11.0249 10.188 10.7454 10.2512L10.4908 10.3088C9.50695 10.5314 9.01501 10.6427 8.89797 11.0191C8.78093 11.3955 9.1163 11.7876 9.78704 12.572L9.96057 12.7749C10.1512 12.9978 10.2465 13.1092 10.2893 13.2471C10.3322 13.385 10.3178 13.5336 10.289 13.831L10.2628 14.1018C10.1614 15.1482 10.1106 15.6715 10.4171 15.9041C10.7235 16.1367 11.1841 15.9246 12.1053 15.5005L12.3436 15.3907C12.6054 15.2702 12.7363 15.2099 12.875 15.2099C13.0137 15.2099 13.1446 15.2702 13.4064 15.3907L13.6447 15.5005C14.5659 15.9246 15.0265 16.1367 15.3329 15.9041C15.6394 15.6715 15.5886 15.1482 15.4872 14.1018L15.461 13.831C15.4322 13.5336 15.4178 13.385 15.4607 13.2471C15.5035 13.1092 15.5988 12.9978 15.7894 12.7749L15.963 12.572C16.6337 11.7876 16.9691 11.3955 16.852 11.0191C16.735 10.6427 16.2431 10.5314 15.2592 10.3088L15.0046 10.2512C14.7251 10.188 14.5853 10.1563 14.473 10.0711C14.3608 9.98592 14.2888 9.85678 14.1448 9.5985L14.0137 9.36335C13.5071 8.45445 13.2537 8 12.875 8C12.4963 8 12.2429 8.45446 11.7363 9.36335Z" fill="white"/>
</svg>
