<svg width="25" height="24" viewBox="0 0 25 24" fill="none" xmlns="http://www.w3.org/2000/svg">
<circle cx="9.62598" cy="6" r="4" fill="white"/>
<ellipse cx="9.62598" cy="17.001" rx="7" ry="4" fill="white"/>
<path d="M21.6246 17.0005C21.6246 18.6573 19.5891 20.0004 17.1038 20.0004C17.836 19.2001 18.3395 18.1955 18.3395 17.0018C18.3395 15.8068 17.8348 14.8013 17.1012 14.0005C19.5865 14.0005 21.6246 15.3436 21.6246 17.0005Z" fill="white"/>
<path d="M18.6246 6.00073C18.6246 7.65759 17.2815 9.00073 15.6246 9.00073C15.2633 9.00073 14.917 8.93687 14.5962 8.81981C15.0693 7.98772 15.3395 7.02522 15.3395 5.99962C15.3395 4.97477 15.0697 4.01294 14.5972 3.18127C14.9177 3.06446 15.2637 3.00073 15.6246 3.00073C17.2815 3.00073 18.6246 4.34388 18.6246 6.00073Z" fill="white"/>
</svg>
