<svg width="25" height="24" viewBox="0 0 25 24" fill="none" xmlns="http://www.w3.org/2000/svg">
<path d="M6.125 10H10.125" stroke="#6C6C6D" stroke-width="1.5" stroke-linecap="round" stroke-linejoin="round"/>
<path d="M20.9583 11H18.3558C16.5715 11 15.125 12.3431 15.125 14C15.125 15.6569 16.5715 17 18.3558 17H20.9583C21.0417 17 21.0833 17 21.1185 16.9979C21.6578 16.965 22.0873 16.5662 22.1227 16.0654C22.125 16.0327 22.125 15.994 22.125 15.9167V12.0833C22.125 12.006 22.125 11.9673 22.1227 11.9346C22.0873 11.4338 21.6578 11.035 21.1185 11.0021C21.0833 11 21.0417 11 20.9583 11Z" stroke="#6C6C6D" stroke-width="1.5"/>
<path d="M21.09 11C21.0123 9.1277 20.7616 7.97975 19.9534 7.17157C18.7819 6 16.8962 6 13.125 6H10.125C6.35376 6 4.46815 6 3.29657 7.17157C2.125 8.34315 2.125 10.2288 2.125 14C2.125 17.7712 2.125 19.6569 3.29657 20.8284C4.46815 22 6.35376 22 10.125 22H13.125C16.8962 22 18.7819 22 19.9534 20.8284C20.7616 20.0203 21.0123 18.8723 21.09 17" stroke="#6C6C6D" stroke-width="1.5"/>
<path d="M6.125 6L9.86049 3.52313C10.9124 2.82562 12.3376 2.82562 13.3895 3.52313L17.125 6" stroke="#6C6C6D" stroke-width="1.5" stroke-linecap="round"/>
<path d="M18.1162 14H18.1252" stroke="#6C6C6D" stroke-width="2" stroke-linecap="round" stroke-linejoin="round"/>
</svg>
