<svg width="25" height="24" viewBox="0 0 25 24" fill="none" xmlns="http://www.w3.org/2000/svg">
<path fill-rule="evenodd" clip-rule="evenodd" d="M20.5355 9.86058C20.4809 9.8571 20.4214 9.85712 20.3598 9.85715L20.3444 9.85715H17.9265C15.9336 9.85715 14.2283 11.4382 14.2283 13.5C14.2283 15.5618 15.9336 17.1429 17.9265 17.1429H20.3444L20.3598 17.1429C20.4214 17.1429 20.4809 17.1429 20.5355 17.1394C21.345 17.0879 22.0609 16.4495 22.1211 15.5577C22.1251 15.4992 22.125 15.4362 22.125 15.3778L22.125 15.3619V11.6381L22.125 11.6222C22.125 11.5638 22.1251 11.5008 22.1211 11.4423C22.0609 10.5506 21.345 9.91209 20.5355 9.86058ZM17.7122 14.4714C18.2252 14.4714 18.6412 14.0365 18.6412 13.5C18.6412 12.9635 18.2252 12.5286 17.7122 12.5286C17.1991 12.5286 16.7831 12.9635 16.7831 13.5C16.7831 14.0365 17.1991 14.4714 17.7122 14.4714Z" fill="white"/>
<path fill-rule="evenodd" clip-rule="evenodd" d="M20.3591 18.6C20.5028 18.5963 20.6116 18.7304 20.5726 18.8699C20.3791 19.562 20.072 20.1518 19.5792 20.6485C18.8579 21.3755 17.9433 21.6981 16.8132 21.8512C15.7152 22 14.3122 22 12.5408 22H10.5044C8.73303 22 7.33001 22 6.23197 21.8512C5.10192 21.6981 4.18727 21.3755 3.46596 20.6485C2.74464 19.9215 2.42453 18.9997 2.2726 17.8608C2.12497 16.7541 2.12499 15.3401 2.125 13.5548V13.4452C2.12498 11.6599 2.12497 10.2459 2.2726 9.13924C2.42453 8.00031 2.74464 7.07848 3.46596 6.35149C4.18727 5.62451 5.10192 5.30188 6.23197 5.14876C7.33 4.99997 8.73302 4.99999 10.5044 5L12.5408 5C14.3122 4.99998 15.7152 4.99997 16.8132 5.14876C17.9433 5.30188 18.8579 5.62451 19.5792 6.35149C20.072 6.84817 20.3791 7.43804 20.5726 8.13012C20.6116 8.26959 20.5028 8.40376 20.3591 8.4L17.9265 8.40001C15.1923 8.40001 12.7825 10.5769 12.7825 13.5C12.7825 16.4231 15.1923 18.6 17.9265 18.6L20.3591 18.6ZM5.73946 8.88572C5.34022 8.88572 5.01657 9.21191 5.01657 9.61429C5.01657 10.0167 5.34022 10.3429 5.73946 10.3429H9.59488C9.99412 10.3429 10.3178 10.0167 10.3178 9.61429C10.3178 9.21191 9.99412 8.88572 9.59488 8.88572H5.73946Z" fill="white"/>
<path d="M7.90168 4.02439L9.86049 2.58126C10.9124 1.80625 12.3376 1.80625 13.3895 2.58126L15.3586 4.03197C14.5353 3.99995 13.6159 3.99998 12.6079 4H10.4373C9.51623 3.99998 8.6691 3.99996 7.90168 4.02439Z" fill="white"/>
</svg>
