<svg width="25" height="24" viewBox="0 0 25 24" fill="none" xmlns="http://www.w3.org/2000/svg">
<path d="M15.0999 8.15612C16.6504 7.23788 17.4257 6.77876 17.9951 7.10452C18.5645 7.43027 18.5509 8.32517 18.5237 10.115L18.5166 10.578C18.5089 11.0866 18.505 11.3409 18.5998 11.5644C18.6946 11.7878 18.8773 11.9552 19.2427 12.2899L19.5753 12.5946C20.8612 13.7725 21.5041 14.3614 21.3534 15.0228C21.2027 15.6841 20.3581 15.9799 18.6691 16.5714L18.2321 16.7245C17.7521 16.8926 17.5121 16.9766 17.328 17.1451C17.1439 17.3137 17.0365 17.5475 16.8217 18.0153L16.6262 18.4412C15.8703 20.0874 15.4924 20.9105 14.8299 20.9935C14.1674 21.0765 13.659 20.3644 12.6423 18.9402L12.3793 18.5717C12.0904 18.167 11.9459 17.9647 11.7373 17.8453C11.5288 17.726 11.2797 17.7032 10.7815 17.6576L10.328 17.6161C8.57505 17.4557 7.69856 17.3754 7.43982 16.7654C7.18108 16.1553 7.71144 15.4194 8.77216 13.9477L9.04658 13.5669C9.348 13.1487 9.49872 12.9396 9.55393 12.6973C9.60914 12.4551 9.56259 12.2071 9.46951 11.7111L9.38476 11.2596C9.05719 9.51421 8.89341 8.64154 9.39601 8.18152C9.89862 7.7215 10.7348 7.9788 12.407 8.49339L12.8397 8.62652C13.3149 8.77276 13.5525 8.84587 13.7952 8.81547C14.0379 8.78508 14.2582 8.65461 14.6988 8.39368L15.0999 8.15612Z" stroke="#6C6C6D" stroke-width="1.5"/>
<path d="M13.875 6.5L13.375 6M9.875 2.5L11.875 4.5" stroke="#6C6C6D" stroke-width="1.5" stroke-linecap="round"/>
<path d="M6.875 6.5L4.375 4" stroke="#6C6C6D" stroke-width="1.5" stroke-linecap="round"/>
<path d="M6.375 12L4.875 10.5M2.375 8L2.875 8.5" stroke="#6C6C6D" stroke-width="1.5" stroke-linecap="round"/>
</svg>
