<svg width="22" height="22" viewBox="0 0 22 22" fill="none" xmlns="http://www.w3.org/2000/svg">
<path d="M5.5 10.0833C5.5 7.49059 5.5 6.19423 6.30546 5.38877C7.11091 4.58331 8.40728 4.58331 11 4.58331H13.75C16.3427 4.58331 17.6391 4.58331 18.4445 5.38877C19.25 6.19423 19.25 7.49059 19.25 10.0833V14.6666C19.25 17.2594 19.25 18.5557 18.4445 19.3612C17.6391 20.1666 16.3427 20.1666 13.75 20.1666H11C8.40728 20.1666 7.11091 20.1666 6.30546 19.3612C5.5 18.5557 5.5 17.2594 5.5 14.6666V10.0833Z" stroke="white" stroke-width="1.8"/>
<path d="M5.5 17.4166C3.98122 17.4166 2.75 16.1854 2.75 14.6666V9.16665C2.75 5.70968 2.75 3.9812 3.82394 2.90725C4.89788 1.83331 6.62637 1.83331 10.0833 1.83331H13.75C15.2688 1.83331 16.5 3.06453 16.5 4.58331" stroke="white" stroke-width="1.8"/>
</svg>
