<svg width="20" height="16" viewBox="0 0 20 16" fill="none" xmlns="http://www.w3.org/2000/svg">
<path fill-rule="evenodd" clip-rule="evenodd" d="M0.217041 6.75951C0.217041 4.56951 0.217041 3.47251 0.644041 2.63551C1.01925 1.8993 1.61783 1.30072 2.35404 0.925511C3.19104 0.499511 4.28704 0.499512 6.47804 0.499512H11.565C13.757 0.499512 14.852 0.499511 15.689 0.925511C16.4253 1.30072 17.0238 1.8993 17.399 2.63551C17.521 2.87551 17.609 3.13451 17.67 3.43451H14.565C13.655 3.43451 13.201 3.43451 12.825 3.51651C12.1531 3.66256 11.5373 3.99867 11.051 4.48481C10.5647 4.97095 10.2283 5.58663 10.082 6.25851C10 6.63551 10 7.09051 10 7.99951C10 8.90951 10 9.36451 10.082 9.74151C10.2283 10.4133 10.5645 11.0289 11.0506 11.515C11.5367 12.0011 12.1523 12.3373 12.824 12.4835C13.201 12.5655 13.656 12.5655 14.565 12.5655H17.67C17.608 12.8655 17.521 13.1255 17.4 13.3635C17.0249 14.0998 16.4263 14.6984 15.69 15.0735C14.852 15.5005 13.757 15.5005 11.565 15.5005H6.47804C4.28704 15.5005 3.19104 15.5005 2.35404 15.0735C1.61779 14.6984 1.01919 14.0998 0.644041 13.3635C0.217041 12.5265 0.217041 11.4315 0.217041 9.23951V6.76151V6.75951ZM11.304 7.99951C11.304 6.78251 11.304 6.17451 11.53 5.70451C11.755 5.23851 12.13 4.86251 12.596 4.63851C13.066 4.41251 13.674 4.41251 14.891 4.41251H16.196C17.412 4.41251 18.021 4.41251 18.49 4.63851C18.956 4.86251 19.332 5.23851 19.557 5.70451C19.783 6.17451 19.783 6.78251 19.783 7.99951C19.783 9.21651 19.783 9.82451 19.556 10.2945C19.332 10.7595 18.956 11.1355 18.49 11.3605C18.02 11.5865 17.413 11.5865 16.196 11.5865H14.89C13.673 11.5865 13.065 11.5865 12.596 11.3605C12.1299 11.1363 11.7537 10.7605 11.529 10.2945C11.303 9.82451 11.303 9.21651 11.303 7.99951H11.304ZM15.544 7.99951C15.544 8.34562 15.4065 8.67755 15.1618 8.92229C14.9171 9.16702 14.5851 9.30451 14.239 9.30451C13.8929 9.30451 13.561 9.16702 13.3163 8.92229C13.0715 8.67755 12.934 8.34562 12.934 7.99951C12.934 7.6534 13.0715 7.32147 13.3163 7.07674C13.561 6.832 13.8929 6.69451 14.239 6.69451C14.5851 6.69451 14.9171 6.832 15.1618 7.07674C15.4065 7.32147 15.544 7.6534 15.544 7.99951Z" fill="white"/>
</svg>
