<svg width="24" height="25" viewBox="0 0 24 25" fill="none" xmlns="http://www.w3.org/2000/svg">
<path d="M15.24 2.5H11.3458C9.58159 2.49999 8.18418 2.49997 7.09054 2.6476C5.96501 2.79953 5.05402 3.11964 4.33559 3.84096C3.61717 4.56227 3.29833 5.47692 3.14701 6.60697C2.99997 7.705 2.99999 9.10802 3 10.8793V16.7169C3 18.225 3.91995 19.5174 5.22717 20.0592C5.15989 19.1498 5.15994 17.8737 5.16 16.812L5.16 11.8976L5.16 11.8024C5.15993 10.5207 5.15986 9.41644 5.27828 8.53211C5.40519 7.58438 5.69139 6.67592 6.4253 5.93906C7.15921 5.20219 8.06404 4.91485 9.00798 4.78743C9.88877 4.66854 10.9887 4.6686 12.2652 4.66867L12.36 4.66868H15.24L15.3348 4.66867C16.6113 4.6686 17.7088 4.66854 18.5896 4.78743C18.0627 3.44779 16.7616 2.5 15.24 2.5Z" fill="#1C274C"/>
<path d="M15.24 2.5H11.3458C9.58159 2.49999 8.18418 2.49997 7.09054 2.6476C5.96501 2.79953 5.05402 3.11964 4.33559 3.84096C3.61717 4.56227 3.29833 5.47692 3.14701 6.60697C2.99997 7.705 2.99999 9.10802 3 10.8793V16.7169C3 18.225 3.91995 19.5174 5.22717 20.0592C5.15989 19.1498 5.15994 17.8737 5.16 16.812L5.16 11.8976L5.16 11.8024C5.15993 10.5207 5.15986 9.41644 5.27828 8.53211C5.40519 7.58438 5.69139 6.67592 6.4253 5.93906C7.15921 5.20219 8.06404 4.91485 9.00798 4.78743C9.88877 4.66854 10.9887 4.6686 12.2652 4.66867L12.36 4.66868H15.24L15.3348 4.66867C16.6113 4.6686 17.7088 4.66854 18.5896 4.78743C18.0627 3.44779 16.7616 2.5 15.24 2.5Z" fill="url(#paint0_linear_85_272)"/>
<path d="M6.6001 11.8974C6.6001 9.17119 6.6001 7.8081 7.44363 6.96118C8.28716 6.11426 9.64481 6.11426 12.3601 6.11426H15.2401C17.9554 6.11426 19.313 6.11426 20.1566 6.96118C21.0001 7.8081 21.0001 9.1712 21.0001 11.8974V16.7167C21.0001 19.4429 21.0001 20.806 20.1566 21.6529C19.313 22.4998 17.9554 22.4998 15.2401 22.4998H12.3601C9.64481 22.4998 8.28716 22.4998 7.44363 21.6529C6.6001 20.806 6.6001 19.4429 6.6001 16.7167V11.8974Z" fill="#1C274C"/>
<path d="M6.6001 11.8974C6.6001 9.17119 6.6001 7.8081 7.44363 6.96118C8.28716 6.11426 9.64481 6.11426 12.3601 6.11426H15.2401C17.9554 6.11426 19.313 6.11426 20.1566 6.96118C21.0001 7.8081 21.0001 9.1712 21.0001 11.8974V16.7167C21.0001 19.4429 21.0001 20.806 20.1566 21.6529C19.313 22.4998 17.9554 22.4998 15.2401 22.4998H12.3601C9.64481 22.4998 8.28716 22.4998 7.44363 21.6529C6.6001 20.806 6.6001 19.4429 6.6001 16.7167V11.8974Z" fill="url(#paint1_linear_85_272)"/>
<defs>
<linearGradient id="paint0_linear_85_272" x1="3" y1="11.3089" x2="18.5896" y2="11.3089" gradientUnits="userSpaceOnUse">
<stop stop-color="#CE6A00"/>
<stop offset="1" stop-color="#FF9500"/>
</linearGradient>
<linearGradient id="paint1_linear_85_272" x1="6.6001" y1="14.307" x2="21.0001" y2="14.307" gradientUnits="userSpaceOnUse">
<stop stop-color="#CE6A00"/>
<stop offset="1" stop-color="#FF9500"/>
</linearGradient>
</defs>
</svg>
