<svg width="70" height="70" viewBox="0 0 70 70" fill="none" xmlns="http://www.w3.org/2000/svg">
<rect width="70" height="70" rx="35" fill="#1F1F21"/>
<path d="M25 35C25 30.286 25 27.9289 26.4645 26.4645C27.9289 25 30.286 25 35 25C39.714 25 42.0711 25 43.5355 26.4645C45 27.9289 45 30.286 45 35C45 39.714 45 42.0711 43.5355 43.5355C42.0711 45 39.714 45 35 45C30.286 45 27.9289 45 26.4645 43.5355C25 42.0711 25 39.714 25 35Z" stroke="white" stroke-width="1.5"/>
<circle cx="39" cy="31" r="2" stroke="white" stroke-width="1.5"/>
<path d="M25 35.5001L26.7516 33.9675C27.6629 33.1702 29.0363 33.2159 29.8925 34.0721L34.1822 38.3618C34.8694 39.0491 35.9512 39.1428 36.7464 38.5839L37.0446 38.3744C38.1888 37.5702 39.7369 37.6634 40.7765 38.599L44 41.5001" stroke="white" stroke-width="1.5" stroke-linecap="round"/>
</svg>
