<svg width="24" height="24" viewBox="0 0 24 24" fill="none" xmlns="http://www.w3.org/2000/svg">
<g clip-path="url(#clip0_85_276)">
<path fill-rule="evenodd" clip-rule="evenodd" d="M12 24C18.6274 24 24 18.6274 24 12C24 5.37259 18.6274 0 12 0C5.37259 0 0 5.37259 0 12C0 18.6274 5.37259 24 12 24ZM17.2745 7.66666C17.367 6.61543 16.257 7.04827 16.257 7.04827C15.4386 7.38703 14.5947 7.73127 13.7417 8.07921L13.7376 8.08092C11.0882 9.16159 8.35109 10.2781 6.01946 11.3769C4.75519 11.8407 5.49526 12.3044 5.49526 12.3044L7.49959 12.9228C8.42465 13.2011 8.91804 12.8919 8.91804 12.8919L13.235 9.95462C14.7768 8.9034 14.4068 9.76913 14.0368 10.1401L10.799 13.232C10.3056 13.6648 10.5523 14.0359 10.7682 14.2214C11.3799 14.7611 12.8848 15.7487 13.5418 16.1798C13.7127 16.292 13.8263 16.3665 13.8517 16.3857C14.0059 16.5094 14.8385 17.0659 15.3936 16.9422C15.9486 16.8185 16.0103 16.1074 16.0103 16.1074L16.7503 11.2532C16.8613 10.4105 16.9886 9.60048 17.0903 8.95354C17.1864 8.34247 17.2596 7.87692 17.2745 7.66666Z" fill="#0098EA"/>
<path d="M17.2745 7.66666C17.367 6.61543 16.257 7.04827 16.257 7.04827C15.4386 7.38703 14.5947 7.73127 13.7417 8.07921L13.7376 8.08092C11.0882 9.16159 8.35109 10.2781 6.01946 11.3769C4.75519 11.8407 5.49526 12.3044 5.49526 12.3044L7.49959 12.9228C8.42465 13.2011 8.91804 12.8919 8.91804 12.8919L13.235 9.95462C14.7768 8.9034 14.4068 9.76913 14.0368 10.1401L10.799 13.232C10.3056 13.6648 10.5523 14.0359 10.7682 14.2214C11.3799 14.7611 12.8848 15.7487 13.5418 16.1798C13.7127 16.292 13.8263 16.3665 13.8517 16.3857C14.0059 16.5094 14.8385 17.0659 15.3936 16.9422C15.9486 16.8185 16.0103 16.1074 16.0103 16.1074L16.7503 11.2532C16.8613 10.4105 16.9886 9.60048 17.0903 8.95354C17.1864 8.34247 17.2596 7.87692 17.2745 7.66666Z" fill="white"/>
</g>
<defs>
<clipPath id="clip0_85_276">
<rect width="24" height="24" fill="white"/>
</clipPath>
</defs>
</svg>
