<svg width="345" height="158" viewBox="0 0 345 158" fill="none" xmlns="http://www.w3.org/2000/svg">
<path d="M1 14.633V1L10.7878 2.21455M1 14.633L48.8904 16.3809M1 14.633V28.6156M48.8904 16.3809V6.9426L43.9965 6.33533M48.8904 16.3809V25.8191M1 28.6156L48.8904 25.8191M1 28.6156V42.9478M48.8904 25.8191V35.2574M1 42.9478L48.8904 35.2574M1 42.9478V56.9304M48.8904 35.2574V44.6956M1 56.9304L48.8904 44.6956M1 56.9304V70.913M48.8904 44.6956V54.1339M1 70.913L48.8904 54.1339M1 70.913V85.2452M48.8904 54.1339V63.2226M1 85.2452L48.8904 63.2226M1 85.2452V99.5773M48.8904 63.2226V72.6608M1 99.5773L48.8904 72.6608M1 99.5773V113.56M48.8904 72.6608V82.0991M1 113.56L48.8904 82.0991M1 113.56V127.892M48.8904 82.0991V91.1878M1 127.892L48.8904 91.1878M1 127.892V141.875M48.8904 91.1878V100.801M1 141.875V155.857L10.7878 146.57M1 141.875L48.8904 100.801M48.8904 100.801V110.414L43.9965 115.058M10.7878 2.21455V146.57M10.7878 2.21455L19.1774 3.25559M10.7878 146.57L19.1774 138.609M19.1774 3.25559V138.609M19.1774 3.25559L26.5182 4.1665M19.1774 138.609L26.5182 131.643M26.5182 4.1665V131.643M26.5182 4.1665L33.16 4.99065M26.5182 131.643L33.16 125.341M33.16 4.99065V125.341M33.16 4.99065L38.753 5.68468M33.16 125.341L38.753 120.033M38.753 5.68468V120.033M38.753 5.68468L43.9965 6.33533M38.753 120.033L43.9965 115.058M43.9965 6.33533V115.058" stroke="white" stroke-opacity="0.4"/>
<path d="M343.923 14.633V1L334.135 2.21455M343.923 14.633L296.033 16.3809M343.923 14.633V28.6156M296.033 16.3809V6.9426L300.927 6.33533M296.033 16.3809V25.8191M343.923 28.6156L296.033 25.8191M343.923 28.6156V42.9478M296.033 25.8191V35.2574M343.923 42.9478L296.033 35.2574M343.923 42.9478V56.9304M296.033 35.2574V44.6956M343.923 56.9304L296.033 44.6956M343.923 56.9304V70.913M296.033 44.6956V54.1339M343.923 70.913L296.033 54.1339M343.923 70.913V85.2452M296.033 54.1339V63.2226M343.923 85.2452L296.033 63.2226M343.923 85.2452V99.5773M296.033 63.2226V72.6608M343.923 99.5773L296.033 72.6608M343.923 99.5773V113.56M296.033 72.6608V82.0991M343.923 113.56L296.033 82.0991M343.923 113.56V127.892M296.033 82.0991V91.1878M343.923 127.892L296.033 91.1878M343.923 127.892V141.875M296.033 91.1878V100.801M343.923 141.875V155.857L334.135 146.57M343.923 141.875L296.033 100.801M296.033 100.801V110.414L300.927 115.058M334.135 2.21455V146.57M334.135 2.21455L325.746 3.25559M334.135 146.57L325.746 138.609M325.746 3.25559V138.609M325.746 3.25559L318.405 4.1665M325.746 138.609L318.405 131.643M318.405 4.1665V131.643M318.405 4.1665L311.763 4.99065M318.405 131.643L311.763 125.341M311.763 4.99065V125.341M311.763 4.99065L306.17 5.68468M311.763 125.341L306.17 120.033M306.17 5.68468V120.033M306.17 5.68468L300.927 6.33533M306.17 120.033L300.927 115.058M300.927 6.33533V115.058" stroke="white" stroke-opacity="0.4"/>
<path d="M49.24 6.9426H296.033" stroke="white" stroke-opacity="0.4"/>
<path d="M49.24 16.3809H296.033" stroke="white" stroke-opacity="0.4"/>
<path d="M49.24 25.8191H296.033" stroke="white" stroke-opacity="0.4"/>
<path d="M49.24 35.2574H296.033" stroke="white" stroke-opacity="0.4"/>
<path d="M49.24 44.6956H296.033" stroke="white" stroke-opacity="0.4"/>
<path d="M49.24 54.1339H296.033" stroke="white" stroke-opacity="0.4"/>
<path d="M49.24 63.2226H296.033" stroke="white" stroke-opacity="0.4"/>
<path d="M49.24 72.6608H296.033" stroke="white" stroke-opacity="0.4"/>
<path d="M49.24 82.0991H296.033" stroke="white" stroke-opacity="0.4"/>
<path d="M49.24 91.1878H296.033" stroke="white" stroke-opacity="0.4"/>
<path d="M49.24 100.626H296.033" stroke="white" stroke-opacity="0.4"/>
<path d="M49.24 110.064H296.033" stroke="white" stroke-opacity="0.4"/>
<path d="M58.3287 7.29216V109.715" stroke="white" stroke-opacity="0.4"/>
<path d="M67.4173 7.29216V109.715" stroke="white" stroke-opacity="0.4"/>
<path d="M76.506 7.29216V109.715" stroke="white" stroke-opacity="0.4"/>
<path d="M85.5947 7.29216V109.715" stroke="white" stroke-opacity="0.4"/>
<path d="M94.6834 7.29216V109.715" stroke="white" stroke-opacity="0.4"/>
<path d="M103.772 7.29216V109.715" stroke="white" stroke-opacity="0.4"/>
<path d="M112.861 7.29216V109.715" stroke="white" stroke-opacity="0.4"/>
<path d="M121.949 7.29216V109.715" stroke="white" stroke-opacity="0.4"/>
<path d="M131.038 7.29216V109.715" stroke="white" stroke-opacity="0.4"/>
<path d="M140.127 7.29216V109.715" stroke="white" stroke-opacity="0.4"/>
<path d="M149.216 7.29216V109.715" stroke="white" stroke-opacity="0.4"/>
<path d="M158.304 7.29216V109.715" stroke="white" stroke-opacity="0.4"/>
<path d="M167.393 7.29216V109.715" stroke="white" stroke-opacity="0.4"/>
<path d="M176.482 7.29216V109.715" stroke="white" stroke-opacity="0.4"/>
<path d="M185.57 7.29216V109.715" stroke="white" stroke-opacity="0.4"/>
<path d="M194.659 7.29216V109.715" stroke="white" stroke-opacity="0.4"/>
<path d="M203.748 7.29216V109.715" stroke="white" stroke-opacity="0.4"/>
<path d="M212.836 7.29216V109.715" stroke="white" stroke-opacity="0.4"/>
<path d="M221.925 7.29216V109.715" stroke="white" stroke-opacity="0.4"/>
<path d="M231.014 7.29216V109.715" stroke="white" stroke-opacity="0.4"/>
<path d="M240.102 7.29216V109.715" stroke="white" stroke-opacity="0.4"/>
<path d="M249.191 7.29216V109.715" stroke="white" stroke-opacity="0.4"/>
<path d="M258.28 7.29216V109.715" stroke="white" stroke-opacity="0.4"/>
<path d="M267.369 7.29216V109.715" stroke="white" stroke-opacity="0.4"/>
<path d="M277.156 7.29216V109.715" stroke="white" stroke-opacity="0.4"/>
<path d="M286.245 7.29216V109.715" stroke="white" stroke-opacity="0.4"/>
<path d="M296.033 7.29216V109.715" stroke="white" stroke-opacity="0.4"/>
</svg>
