<svg width="24" height="25" viewBox="0 0 24 25" fill="none" xmlns="http://www.w3.org/2000/svg">
<g filter="url(#filter0_i_28_154)">
<path d="M12 24.5C18.6274 24.5 24 19.1274 24 12.5C24 5.87257 18.6274 0.5 12 0.5C5.37257 0.5 0 5.87257 0 12.5C0 19.1274 5.37257 24.5 12 24.5Z" fill="#0098EA"/>
<path fill-rule="evenodd" clip-rule="evenodd" d="M13.4235 13.9885V13.987C13.3438 13.9929 12.9328 14.0177 12.0159 14.0177C11.2839 14.0177 10.7686 13.9958 10.5874 13.987V13.9892C7.76941 13.8643 5.66608 13.3696 5.66608 12.7777C5.66608 12.1866 7.76941 11.6919 10.5874 11.5647V13.4967C10.7715 13.5099 11.2991 13.5413 12.0283 13.5413C12.9031 13.5413 13.3416 13.5047 13.4235 13.4974V11.5662C16.2357 11.6926 18.3339 12.1873 18.3339 12.7777C18.3339 13.3696 16.2357 13.8628 13.4235 13.9885ZM13.4235 11.3652V9.63639H17.3475V7H6.66339V9.63639H10.5874V11.3645C7.39832 11.5121 5 12.1493 5 12.9121C5 13.675 7.39832 14.3114 10.5874 14.4598V20H13.4235V14.4583C16.6075 14.3107 19 13.6743 19 12.9121C19 12.15 16.6075 11.5136 13.4235 11.3652Z" fill="white"/>
</g>
<defs>
<filter id="filter0_i_28_154" x="0" y="-3.5" width="24" height="28" filterUnits="userSpaceOnUse" color-interpolation-filters="sRGB">
<feFlood flood-opacity="0" result="BackgroundImageFix"/>
<feBlend mode="normal" in="SourceGraphic" in2="BackgroundImageFix" result="shape"/>
<feColorMatrix in="SourceAlpha" type="matrix" values="0 0 0 0 0 0 0 0 0 0 0 0 0 0 0 0 0 0 127 0" result="hardAlpha"/>
<feOffset dy="-4"/>
<feGaussianBlur stdDeviation="4"/>
<feComposite in2="hardAlpha" operator="arithmetic" k2="-1" k3="1"/>
<feColorMatrix type="matrix" values="0 0 0 0 0 0 0 0 0 0 0 0 0 0 0 0 0 0 0.25 0"/>
<feBlend mode="normal" in2="shape" result="effect1_innerShadow_28_154"/>
</filter>
</defs>
</svg>
